<?xml version="1.0" standalone="no"?>
<!DOCTYPE svg PUBLIC "-//W3C//DTD SVG 20010904//EN"
 "http://www.w3.org/TR/2001/REC-SVG-20010904/DTD/svg10.dtd">
<svg version="1.0" xmlns="http://www.w3.org/2000/svg"
 width="512.000000pt" height="512.000000pt" viewBox="0 0 512.000000 512.000000"
 preserveAspectRatio="xMidYMid meet">
<metadata>
Created by potrace 1.14, written by Peter Selinger 2001-2017
</metadata>
<g transform="translate(0.000000,512.000000) scale(0.100000,-0.100000)"
fill="#000000" stroke="none">
<path d="M2897 4604 c-1 -1 -27 -4 -57 -7 -198 -20 -409 -148 -530 -322 -45
-65 -109 -202 -110 -237 -3 -54 -161 -414 -232 -528 -56 -91 -171 -233 -253
-315 -219 -218 -471 -365 -801 -468 -210 -65 -329 -140 -431 -269 -119 -152
-171 -300 -171 -486 0 -206 75 -394 216 -537 62 -64 141 -125 160 -125 6 0 12
-4 14 -8 4 -11 112 -57 183 -78 85 -25 305 -25 395 0 85 23 143 35 265 53 108
16 443 8 545 -12 14 -3 39 -8 55 -11 301 -54 664 -250 918 -496 205 -199 465
-276 732 -217 267 58 480 254 565 519 73 228 27 495 -116 686 -22 29 -69 85
-106 125 -98 108 -104 115 -178 219 -158 222 -268 484 -310 736 -32 190 -32
457 0 625 6 30 13 66 15 81 3 14 14 66 26 115 41 173 20 370 -56 525 -39 79
-110 175 -164 223 -19 16 -39 35 -45 40 -69 66 -248 144 -366 161 -52 7 -158
12 -163 8z m-199 -1503 c17 -5 32 -8 32 -6 0 2 30 -8 67 -21 221 -80 393 -256
467 -476 25 -76 28 -97 32 -218 10 -348 -197 -631 -541 -740 -78 -25 -252 -36
-320 -20 -22 5 -51 11 -65 14 -150 29 -343 160 -437 297 -180 262 -182 597 -6
855 116 170 307 291 511 323 60 10 217 5 260 -8z"/>
<path d="M4660 1402 c0 -6 -8 -9 -17 -6 -15 5 -16 4 -3 -5 16 -11 40 3 27 16
-4 3 -7 1 -7 -5z"/>
<path d="M4700 1401 c0 -5 7 -12 16 -15 14 -5 15 -4 4 9 -14 17 -20 19 -20 6z"/>
<path d="M4764 1388 c-4 -6 -3 -8 4 -4 5 3 13 0 15 -6 3 -8 6 -6 6 5 1 19 -14
23 -25 5z"/>
<path d="M4697 1373 c-10 -9 -9 -23 1 -23 5 0 9 7 9 15 0 17 -1 18 -10 8z"/>
<path d="M4720 1364 c0 -5 6 -18 13 -28 13 -17 14 -18 20 -2 4 10 3 14 -2 11
-6 -3 -14 3 -20 12 -6 10 -11 13 -11 7z"/>
<path d="M4784 1349 c-3 -6 -2 -15 3 -20 5 -5 9 -1 9 11 0 23 -2 24 -12 9z"/>
<path d="M4640 1341 c0 -6 4 -13 10 -16 6 -3 7 1 4 9 -7 18 -14 21 -14 7z"/>
<path d="M4695 1331 c-3 -5 -2 -12 3 -15 5 -3 9 1 9 9 0 17 -3 19 -12 6z"/>
</g>
</svg>
