<svg xmlns="http://www.w3.org/2000/svg"
    xmlns:xlink="http://www.w3.org/1999/xlink" version="1.1" x="0px" y="0px" viewBox="0 0 96 96" style="enable-background:new 0 0 96 96;" xml:space="preserve">
    <g>
        <path d="M47,40.9c-6.7,0-12.1,5.4-12.1,12.1S40.3,65.1,47,65.1S59.1,59.7,59.1,53S53.7,40.9,47,40.9z"/>
        <path d="M56.9,67.9h-1l-0.6,0.6c-2.3,2.2-5.2,3.4-8.3,3.4c-3.1,0-6-1.2-8.3-3.4l-0.6-0.6h-1c-7.4,0.6-13.2,6.9-13.2,14.3v9.9h46.2   v-9.9C70.1,74.8,64.3,68.5,56.9,67.9z"/>
        <path d="M21,67.1c5.6,0,10.1-4.5,10.1-10.1S26.6,46.9,21,46.9S10.9,51.4,10.9,57S15.4,67.1,21,67.1z"/>
        <path d="M15.6,70.5L15,69.9h-2C7.4,69.9,2.9,74.4,2.9,80v8.1h18.2V72.9H21C18.8,72.9,17.1,72.1,15.6,70.5z"/>
        <path d="M83.1,57c0-5.6-4.5-10.1-10.1-10.1S62.9,51.4,62.9,57S67.4,67.1,73,67.1S83.1,62.6,83.1,57z"/>
        <path d="M81,69.9h-2l-0.6,0.6c-1.3,1.5-3.2,2.4-5.4,2.4h-0.1v15.2h18.2V80C91.1,74.4,86.6,69.9,81,69.9z"/>
        <path d="M88,21.9H69c-2.3,0-4.1,1.9-4.1,4.1v10c0,2.3,1.9,4.1,4.1,4.1h5.3l3.5,7.3l4.4-7.3H88c2.3,0,4.1-1.9,4.1-4.1V26   C92.1,23.7,90.3,21.9,88,21.9z"/>
        <path d="M22,33.1h8.7l5.5,9.7l4.2-9.7H57c2.3,0,4.1-1.9,4.1-4.1V8c0-2.3-1.9-4.1-4.1-4.1H22c-2.3,0-4.1,1.9-4.1,4.1v21   C17.9,31.3,19.7,33.1,22,33.1z M44.1,24.1H29.9v-4.2h14.2V24.1z M28.9,11.9h22.2v4.2H28.9V11.9z"/>
    </g>
</svg>