<svg fill="#161925" width="300px" height="300px" xmlns="http://www.w3.org/2000/svg" data-name="Layer 1" viewBox="0 0 128 128" x="0px" y="0px">
<title>Miscellaneous 85 Expended</title>
<path d="M46.1,65.485a10.835,10.835,0,0,1-6.008.558c-1.755-.573-2.977-.886-3.317-.969L2.612,54.1A2,2,0,1,0,1.388,57.9L37.569,69.532c.468.15.943.27,1.421.373,5.345,1.773,15.762,6.065,18.924,13.388a2,2,0,1,0,3.672-1.586c-2.513-5.821-8.421-9.905-13.854-12.573a11.213,11.213,0,0,0,1.545-.819L67.137,57.159a9.075,9.075,0,0,1,2.047-.991,11,11,0,0,1,4.457-.444,9.884,9.884,0,0,1,5.345,2.429L87.6,65.558a2.029,2.029,0,0,0,.32.225c.257.145.522.27.786.4-4.084,1.647-8.473,4.043-11.038,7.342a2,2,0,0,0,3.158,2.455c4.536-5.833,17.147-8.561,18.262-8.792l8.068-1.6a10.8,10.8,0,0,1,8.073,1.586l9.651,6.488a2,2,0,1,0,2.232-3.32l-9.651-6.488a14.837,14.837,0,0,0-11.083-2.189l-7.967,1.579h-.008l-.177.036-.947.188a10.785,10.785,0,0,1-7.229-1.075l-8.462-7.271a13.855,13.855,0,0,0-7.522-3.372,14.965,14.965,0,0,0-6.1.608,13,13,0,0,0-2.956,1.412L47.156,64.923A6.584,6.584,0,0,1,46.1,65.485Z"/><path d="M126,124a32.791,32.791,0,0,1-11.785-1.9A36.591,36.591,0,0,0,101.2,120a36.593,36.593,0,0,0-13.014,2.1A32.785,32.785,0,0,1,76.4,124a32.791,32.791,0,0,1-11.785-1.9A36.6,36.6,0,0,0,51.6,120a36.6,36.6,0,0,0-13.015,2.1A32.8,32.8,0,0,1,26.8,124a32.8,32.8,0,0,1-11.787-1.9A36.606,36.606,0,0,0,2,120a2,2,0,0,0,0,4,32.8,32.8,0,0,1,11.787,1.9A36.606,36.606,0,0,0,26.8,128a36.606,36.606,0,0,0,13.016-2.1A32.793,32.793,0,0,1,51.6,124a32.793,32.793,0,0,1,11.786,1.9A36.593,36.593,0,0,0,76.4,128a36.591,36.591,0,0,0,13.013-2.1A32.791,32.791,0,0,1,101.2,124a32.785,32.785,0,0,1,11.784,1.9A36.593,36.593,0,0,0,126,128a2,2,0,0,0,0-4Z"/><path d="M126,108a32.791,32.791,0,0,1-11.785-1.9A36.591,36.591,0,0,0,101.2,104a36.593,36.593,0,0,0-13.014,2.1A32.785,32.785,0,0,1,76.4,108a32.791,32.791,0,0,1-11.785-1.9A36.6,36.6,0,0,0,51.6,104a36.6,36.6,0,0,0-13.015,2.1A32.8,32.8,0,0,1,26.8,108a32.8,32.8,0,0,1-11.787-1.9A36.606,36.606,0,0,0,2,104a2,2,0,0,0,0,4,32.8,32.8,0,0,1,11.787,1.9A36.606,36.606,0,0,0,26.8,112a36.606,36.606,0,0,0,13.016-2.1A32.793,32.793,0,0,1,51.6,108a32.793,32.793,0,0,1,11.786,1.9A36.593,36.593,0,0,0,76.4,112a36.591,36.591,0,0,0,13.013-2.1A32.791,32.791,0,0,1,101.2,108a32.785,32.785,0,0,1,11.784,1.9A36.593,36.593,0,0,0,126,112a2,2,0,0,0,0-4Z"/><path d="M4.7,18H23.3a4,4,0,0,0,3.249-1.666A7.737,7.737,0,0,0,21.937,4.268a9.514,9.514,0,0,0-15.874,0A7.737,7.737,0,0,0,1.452,16.334,4,4,0,0,0,4.7,18ZM7.6,8.11a3.477,3.477,0,0,1,1,.144,5.559,5.559,0,0,1,10.808,0,3.478,3.478,0,0,1,1-.144,3.651,3.651,0,0,1,3.6,3.7A3.749,3.749,0,0,1,23.3,14H4.7A3.749,3.749,0,0,1,4,11.809,3.651,3.651,0,0,1,7.6,8.11Z"/><path d="M21,39.371a8.323,8.323,0,0,0,1.753,5.086A4,4,0,0,0,25.91,46H50.09a4,4,0,0,0,3.157-1.543A8.323,8.323,0,0,0,55,39.371a8.535,8.535,0,0,0-7.514-8.363,11.488,11.488,0,0,0-18.972,0A8.535,8.535,0,0,0,21,39.371Zm8.68-4.439a4.873,4.873,0,0,1,1.295.173,7.386,7.386,0,0,1,14.05,0,4.874,4.874,0,0,1,1.295-.173A4.565,4.565,0,0,1,51,39.371,4.269,4.269,0,0,1,50.09,42H25.91A4.269,4.269,0,0,1,25,39.371,4.565,4.565,0,0,1,29.68,34.932Z"/><path d="M72.63,21H89.37a4,4,0,0,0,3.111-1.486A6.815,6.815,0,0,0,94,15.247,7.046,7.046,0,0,0,88.219,8.43a9.312,9.312,0,0,0-14.439,0A7.046,7.046,0,0,0,68,15.247a6.815,6.815,0,0,0,1.519,4.267A4,4,0,0,0,72.63,21Zm2.61-8.712a3.5,3.5,0,0,1,.9.115,5.177,5.177,0,0,1,9.727,0,3.5,3.5,0,0,1,.9-.115A3.109,3.109,0,0,1,90,15.247,2.78,2.78,0,0,1,89.37,17H72.63A2.78,2.78,0,0,1,72,15.247,3.109,3.109,0,0,1,75.24,12.288Z"/><path d="M102.77,50h20.46a4,4,0,0,0,3.138-1.52A7.569,7.569,0,0,0,128,43.809a7.792,7.792,0,0,0-6.64-7.593,10.4,10.4,0,0,0-16.721,0A7.792,7.792,0,0,0,98,43.809a7.569,7.569,0,0,0,1.632,4.671A4,4,0,0,0,102.77,50Zm3.189-9.876a3.461,3.461,0,0,1,.452.033c.494.069.714-.11.906-.554A6.2,6.2,0,0,1,113,36a6.105,6.105,0,0,1,5.944,4.254,4.182,4.182,0,0,1,1.1-.144,3.837,3.837,0,0,1,3.96,3.7A3.523,3.523,0,0,1,123.23,46c-1.953,0-19.943.051-20.208,0-1.315-.253-1.1-2.7-.725-3.543A4.1,4.1,0,0,1,105.959,40.124Z"/>
</svg>