<?xml version="1.0" encoding="utf-8"?>
<!-- Generator: Adobe Illustrator 20.0.0, SVG Export Plug-In . SVG Version: 6.00 Build 0)  -->
<svg version="1.1" id="iOS_getStarted_24_dk-ou" xmlns="http://www.w3.org/2000/svg" xmlns:xlink="http://www.w3.org/1999/xlink"
	 x="0px" y="0px" width="24px" height="24px" viewBox="0 0 24 24" style="enable-background:new 0 0 24 24;" xml:space="preserve">
<style type="text/css">
	.st0{fill:#FFFFFF;}
</style>
<title>iOS_getStarted_24_dk-ou</title>
<rect x="3.1" y="18.5" transform="matrix(0.7071 -0.7071 0.7071 0.7071 -11.6929 9.2656)" class="st0" width="4.4" height="0.5"/>
<rect x="5" y="19.1" transform="matrix(0.7071 -0.7071 0.7071 0.7071 -11.762 10.3744)" class="st0" width="3.4" height="0.5"/>
<rect x="3" y="17.2" transform="matrix(0.7071 -0.7071 0.7071 0.7071 -10.9545 8.3982)" class="st0" width="3.4" height="0.5"/>
<path class="st0" d="M11.6,21.6l-0.1-0.8c-0.2-0.9-0.4-1.8-0.8-2.7l0.9-0.4c0.3,0.7,0.6,1.4,0.7,2.1c4.4-3.5,3.8-4.7,3.4-5.6
	l0.9-0.4c0.9,1.9,0.5,3.6-4.3,7.3L11.6,21.6z"/>
<path class="st0" d="M6,13.5c-0.8-0.4-1.7-0.6-2.7-0.8l-0.8-0.1l0.5-0.7c3.7-4.8,5.5-5.2,7.3-4.3L10,8.5c-0.9-0.5-2.1-1-5.6,3.4
	c0.7,0.2,1.4,0.4,2.1,0.7L6,13.5z"/>
<path class="st0" d="M19.6,4.2c-0.4,2.4-2.1,8.1-9.6,12.5l-2.7-2.7C11.8,6.5,17.3,4.7,19.6,4.2z M20.8,3c-0.7,0-8.8,0.7-14.6,11.2
	L9.9,18C20.4,12.2,20.8,3.7,20.8,3z"/>
</svg>
