<?xml version="1.0" encoding="utf-8"?>
<!-- Generator: Adobe Illustrator 20.0.0, SVG Export Plug-In . SVG Version: 6.00 Build 0)  -->
<svg version="1.1" id="iOS_getStarted_56_dk-ou" xmlns="http://www.w3.org/2000/svg" xmlns:xlink="http://www.w3.org/1999/xlink"
	 x="0px" y="0px" width="56px" height="56px" viewBox="0 0 56 56" style="enable-background:new 0 0 56 56;" xml:space="preserve">
<style type="text/css">
	.st0{fill:#FFFFFF;}
</style>
<title>iOS_getStarted_56_dk-ou</title>
<path class="st0" d="M47.8,8.3c-0.8,5.5-4.5,19.8-23.2,30.6l-6.7-6.7C28.7,13.5,42.5,9.2,47.8,8.3z M50,6c-1.6,0-20.9,1.6-34.6,26.5
	l8.8,8.8C49.2,27.7,50,7.6,50,6z"/>
<path class="st0" d="M37.5,23c-2.1,0-3.7-1.7-3.7-3.7c0-2.1,1.7-3.7,3.7-3.7c2.1,0,3.7,1.7,3.7,3.7c0,1-0.4,1.9-1.1,2.6
	C39.4,22.6,38.5,23,37.5,23z M37.5,16.5c-1.5,0-2.7,1.2-2.7,2.7c0,1.5,1.2,2.7,2.7,2.7c1.5,0,2.7-1.2,2.7-2.7c0-0.7-0.3-1.4-0.8-1.9
	C38.9,16.8,38.2,16.5,37.5,16.5z"/>
<rect x="9.6" y="41.3" transform="matrix(0.7071 -0.7071 0.7071 0.7071 -25.2648 22.7461)" class="st0" width="10.4" height="1.1"/>
<rect x="13.4" y="42.3" transform="matrix(0.7071 -0.7071 0.7071 0.7071 -25.244 24.8745)" class="st0" width="8" height="1.1"/>
<rect x="9.8" y="38.7" transform="matrix(0.7071 -0.7071 0.7071 0.7071 -23.7609 21.2351)" class="st0" width="8" height="1.1"/>
<path class="st0" d="M28.3,49.6L28,47.9c-0.4-2.2-1.1-4.3-1.9-6.3l1.8-0.9c0.8,1.7,1.4,3.4,1.8,5.2c10.8-8.6,9.4-11.4,8.3-13.7
	l1.8-0.9c1.8,3.7,2.3,7.5-10.1,17.1L28.3,49.6z"/>
<path class="st0" d="M15.2,30.7c-2-0.9-4.2-1.6-6.3-1.9l-1.7-0.3l1-1.3C17.9,14.7,21.7,15.2,25.4,17l-0.9,1.8
	c-2.3-1.1-5-2.5-13.7,8.3c1.8,0.4,3.6,1,5.2,1.8L15.2,30.7z"/>
</svg>
