<?xml version="1.0" encoding="UTF-8"?><svg xmlns="http://www.w3.org/2000/svg" viewBox="0 0 48 48"><defs><linearGradient id="grad0" gradientUnits="userSpaceOnUse" y1="47.37" x2="0" y2="-1.429"><stop offset="0" stop-color="#c52828"/><stop offset="1" stop-color="#ff5454"/></linearGradient></defs><g transform="matrix(.99999 0 0 .99999-38.37 25.882)" enable-background="new"><circle cx="82.37" cy="23.12" r="24" fill="url(#grad0)" transform="translate(-20-25)"/><path d="m74.19 3.529c-.082-.11-.211-.266-.357-.415-1.516-1.556-2.648-3.393-3.258-5.428-.028-.095-.056-.189-.081-.284-.026-.096-.049-.193-.073-.29-.488-2.066-.429-4.225.109-6.329 0 0 .082-.347.103-.491.452-2.659-1.185-5.273-3.841-5.986-2.708-.726-5.483.793-6.368 3.412-.037.097-.111.345-.112.348-.582 2.063-1.593 3.937-3.02 5.47-1.623 1.704-3.686 2.915-5.999 3.535-2.818.755-4.492 3.657-3.737 6.476.756 2.819 3.653 4.493 6.473 3.737 2.104-.537 4.262-.598 6.328-.11.096.023.193.05.289.074.096.025.192.053.287.08 2.034.611 3.872 1.742 5.426 3.259.191.191.356.326.51.435 2.088 1.592 5.06 1.47 6.964-.435 1.933-1.93 2.045-4.983.358-7.06m-12.804.955c-2.759-.739-4.396-3.576-3.657-6.336.74-2.759 3.576-4.397 6.334-3.658 2.76.74 4.397 3.576 3.657 6.335-.739 2.759-3.575 4.398-6.334 3.658" fill="#fff" fill-opacity=".846"/></g></svg>