<?xml version="1.0" encoding="utf-8"?>
<!-- Generator: Adobe Illustrator 20.0.0, SVG Export Plug-In . SVG Version: 6.00 Build 0)  -->
<svg version="1.1" id="iOS_tutorials_56_dk-ou" xmlns="http://www.w3.org/2000/svg" xmlns:xlink="http://www.w3.org/1999/xlink"
	 x="0px" y="0px" width="56px" height="56px" viewBox="0 0 56 56" style="enable-background:new 0 0 56 56;" xml:space="preserve">
<style type="text/css">
	.st0{fill:#FFFFFF;}
</style>
<title>iOS_tutorials_56_dk-ou</title>
<path class="st0" d="M35.2,29.8v3.9L28,37.5l-13.3-6.9v-3.2L13,26.6v5.3l15,8l9-4.9v-6L35.2,29.8z"/>
<polygon class="st0" points="35.2,25.3 28,28.4 7.8,19.8 28,11.2 48.2,19.8 40.6,23 42,23.6 42.9,24 42.9,24.2 53.3,19.8 28,9 
	2.7,19.8 28,30.5 37.5,26.5 "/>
<rect x="26" y="17.4" transform="matrix(0.7071 -0.7071 0.7071 0.7071 -5.489 25.5094)" class="st0" width="4" height="4"/>
<path class="st0" d="M42.8,41c0-0.8-0.5-1.5-1.3-1.8v-14c0-0.2-0.1-0.4-0.3-0.5l-9.5-4.1l-0.9,0.8l8.2,4.3c0.2,0.1,0.3,0.2,0.3,0.4
	l0.6,13c-0.8,0.4-1.6,0.9-1.6,1.9c0.2,1,0.7,1.8,1.5,2.4l-3.1,7.8l3.8,1.3l3.8-1.3l-3.1-7.8C42,42.9,42.6,42,42.8,41z"/>
</svg>
