<?xml version="1.0" encoding="utf-8"?>
<!-- Generator: Adobe Illustrator 20.0.0, SVG Export Plug-In . SVG Version: 6.00 Build 0)  -->
<svg version="1.1" id="iOS_tutorials_24_dk-ou" xmlns="http://www.w3.org/2000/svg" xmlns:xlink="http://www.w3.org/1999/xlink"
	 x="0px" y="0px" width="24px" height="24px" viewBox="0 0 24 24" style="enable-background:new 0 0 24 24;" xml:space="preserve">
<style type="text/css">
	.st0{fill:#FFFFFF;}
</style>
<title>iOS_tutorials_24_dk-ou</title>
<polygon class="st0" points="15.4,14.3 12.3,16 7,13.2 7,11.9 6,11.4 6,13.6 12.3,17.1 15.4,15.3 "/>
<polygon class="st0" points="14.1,11.1 12,12 3.5,8.5 12,5 20.5,8.5 17.8,9.6 19.2,10 22.9,8.5 12,3.9 1.1,8.5 12,13.1 15.4,11.6 
	"/>
<rect x="11.2" y="7.4" transform="matrix(0.7071 -0.7071 0.7071 0.7071 -2.3438 10.9117)" class="st0" width="1.7" height="1.7"/>
<path class="st0" d="M17.6,18.6c0.4-0.2,0.6-0.6,0.7-1c0-0.3-0.2-0.7-0.6-0.8l0-6c0-0.1-0.1-0.2-0.1-0.2l-4.1-1.7l-0.4,0.4l3.5,1.8
	c0.1,0,0.1,0.1,0.1,0.2l0.3,5.6c-0.4,0.1-0.6,0.4-0.7,0.8c0.1,0.4,0.3,0.8,0.7,1l-1.3,3.3l1.6,0.5l1.6-0.5L17.6,18.6z"/>
</svg>
